<svg xmlns="http://www.w3.org/2000/svg" width="24" height="24" fill="none"><g style="fill:#000"><path fill="none" d="m3.731 8.435 6.477-4.764V19.8l-6.477-4.764a1.388 1.388 0 0 0-.548-.243l-1.688-.347-.052-.009a.257.257 0 0 1-.043-.148V9.182c0-.079.021-.125.034-.146l.061-.011 1.688-.347c.198-.04.385-.123.548-.243Zm-2.275 6.017Z" class="fills" style="fill:none"/><g fill="none" stroke-linejoin="round" class="strokes"><path d="m3.731 8.435 6.477-4.764V19.8l-6.477-4.764a1.388 1.388 0 0 0-.548-.243l-1.688-.347-.052-.009a.257.257 0 0 1-.043-.148V9.182c0-.079.021-.125.034-.146l.061-.011 1.688-.347c.198-.04.385-.123.548-.243Zm-2.275 6.017Z" class="stroke-shape" style="fill:none;stroke-width:2.5;stroke:currentColor;stroke-opacity:1"/></g><path d="M16.084 8.548c-.328-.635-1.087-.779-1.593-.288l-.076.057c-.354.346-.455.952-.227 1.414a4.51 4.51 0 0 1 .455 1.962 4.51 4.51 0 0 1-.455 1.962c-.228.461-.127 1.067.227 1.413l.076.058c.481.49 1.265.375 1.593-.289a7.211 7.211 0 0 0 .734-3.173c0-1.096-.278-2.164-.734-3.116Z" class="fills" style="fill:currentColor"/><path d="M18.74 5.691c-.354-.577-1.088-.664-1.543-.202l-.05.058a1.316 1.316 0 0 0-.152 1.558c.809 1.298 1.265 2.914 1.265 4.616a8.925 8.925 0 0 1-1.265 4.616 1.316 1.316 0 0 0 .152 1.558l.05.057c.455.462 1.189.376 1.543-.202 1.062-1.702 1.669-3.779 1.669-6.029 0-2.251-.607-4.328-1.669-6.03Z" class="fills" style="fill:currentColor"/><path d="M21.395 2.893c-.379-.548-1.062-.635-1.517-.173l-.076.057c-.405.404-.455 1.097-.127 1.587 1.366 2.049 2.15 4.587 2.15 7.328 0 2.741-.809 5.309-2.15 7.328-.328.491-.278 1.183.127 1.587l.076.058c.455.461 1.138.375 1.517-.173C23.039 18.039 24 14.981 24 11.663c0-3.26-.961-6.318-2.605-8.77Z" class="fills" style="fill:currentColor"/></g></svg>