<svg xmlns="http://www.w3.org/2000/svg" width="24" height="24" fill="none"><g style="fill:#000"><path fill="none" d="M6.4 17.6c-1.261 0-3.089 0-3.57-.249a2.27 2.27 0 0 1-.985-.999c-.245-.489-.245-1.129-.245-2.409V5.257c0-1.28 0-1.92.245-2.409.216-.43.561-.78.985-.999C3.311 1.6 3.942 1.6 5.203 1.6h8.794c1.261 0 1.892 0 2.373.249.424.219.769.569.985.999.245.489.245 1.129.245 2.409V6.4m1.197 16h-8.794c-1.261 0-1.892 0-2.373-.249a2.27 2.27 0 0 1-.985-.999c-.245-.489-.245-1.129-.245-2.409v-8.686c0-1.28 0-1.92.245-2.409.216-.43.561-.78.985-.999.481-.249 1.112-.249 2.373-.249h8.794c1.261 0 1.892 0 2.373.249.424.219.769.569.985.999.245.489.245 1.129.245 2.409v8.686c0 1.28 0 1.92-.245 2.409a2.27 2.27 0 0 1-.985.999c-.481.249-1.112.249-2.373.249Z" class="fills" style="fill:none"/><g fill="none" stroke-linejoin="round" class="strokes"><path d="M6.4 17.6c-1.261 0-3.089 0-3.57-.249a2.27 2.27 0 0 1-.985-.999c-.245-.489-.245-1.129-.245-2.409V5.257c0-1.28 0-1.92.245-2.409.216-.43.561-.78.985-.999C3.311 1.6 3.942 1.6 5.203 1.6h8.794c1.261 0 1.892 0 2.373.249.424.219.769.569.985.999.245.489.245 1.129.245 2.409V6.4m1.197 16h-8.794c-1.261 0-1.892 0-2.373-.249a2.27 2.27 0 0 1-.985-.999c-.245-.489-.245-1.129-.245-2.409v-8.686c0-1.28 0-1.92.245-2.409.216-.43.561-.78.985-.999.481-.249 1.112-.249 2.373-.249h8.794c1.261 0 1.892 0 2.373.249.424.219.769.569.985.999.245.489.245 1.129.245 2.409v8.686c0 1.28 0 1.92-.245 2.409a2.27 2.27 0 0 1-.985.999c-.481.249-1.112.249-2.373.249Z" class="stroke-shape" style="fill:none;stroke-width:2.5;stroke:currentColor;stroke-opacity:1"/></g></g></svg>