<svg xmlns="http://www.w3.org/2000/svg" width="18" height="24" fill="none"><g style="fill:#000"><path fill="currentColor" d="M9 0c.71 0 1.286.537 1.286 1.2v13.903l4.233-3.952a1.354 1.354 0 0 1 1.819 0 1.145 1.145 0 0 1 0 1.698l-6.429 6a1.353 1.353 0 0 1-1.818 0l-6.429-6a1.145 1.145 0 0 1 0-1.698 1.354 1.354 0 0 1 1.819 0l4.233 3.952V1.2C7.714.537 8.29 0 9 0ZM0 22.8c0-.663.576-1.2 1.286-1.2h15.428c.71 0 1.286.537 1.286 1.2 0 .663-.576 1.2-1.286 1.2H1.286C.576 24 0 23.463 0 22.8Z" class="fills"/></g></svg>