<svg width="72" height="72" viewBox="0 0 72 72" fill="none" xmlns="http://www.w3.org/2000/svg">
    <style>
        path{fill:black}@media (prefers-color-scheme: dark){path{fill:white}}
    </style>
    <g clip-path="url(#logo)">
        <path fill-rule="evenodd" clip-rule="evenodd"
            d="M72 36C72 55.8821 55.8821 72 36 72C16.1178 72 0 55.8821 0 36C0 16.1178 16.1178 0 36 0C55.8821 0 72 16.1178 72 36ZM68.4211 36C68.4211 53.9056 53.9056 68.4211 36 68.4211C18.0943 68.4211 3.57896 53.9056 3.57896 36C3.57896 18.0943 18.0943 3.57896 36 3.57896C53.9056 3.57896 68.4211 18.0943 68.4211 36Z" />
        <path fill-rule="evenodd" clip-rule="evenodd"
            d="M54.218 51.3896C55.0417 52.2133 56.3985 52.165 57.0811 51.2211C59.4083 48.0037 61.017 44.2323 61.6718 40.1425C61.8559 38.9928 60.9307 37.9999 59.7663 37.9999L45.6568 37.9999C43.8749 37.9999 42.9826 40.1542 44.2425 41.4141L54.218 51.3896ZM51.3896 54.218C52.2132 55.0417 52.1649 56.3985 51.2211 57.0812C48.0037 59.4083 44.2324 61.0169 40.1426 61.6718C38.9929 61.8558 38 60.9306 38 59.7663V45.6569C38 43.875 40.1543 42.9827 41.4142 44.2426L51.3896 54.218ZM30.5858 27.7574C31.8457 29.0173 34 28.125 34 26.3431V12.2337C34 11.0693 33.0071 10.1441 31.8574 10.3282C27.7676 10.983 23.9963 12.5917 20.7788 14.9188C19.835 15.6015 19.7867 16.9583 20.6104 17.782L30.5858 27.7574ZM14.9188 20.7789C15.6015 19.835 16.9583 19.7867 17.7819 20.6104L27.7573 30.5857C29.0172 31.8456 28.1249 33.9999 26.3431 33.9999L12.2337 33.9999C11.0694 33.9999 10.1441 33.007 10.3282 31.8573C10.9831 27.7676 12.5917 23.9963 14.9188 20.7789ZM51.2212 14.9188C52.165 15.6015 52.2133 16.9583 51.3896 17.7819L41.4142 27.7574C40.1543 29.0173 38 28.125 38 26.3432V12.2337C38 11.0693 38.9929 10.1441 40.1426 10.3282C44.2324 10.983 48.0037 12.5917 51.2212 14.9188ZM10.3282 40.1425C10.1441 38.9928 11.0693 37.9999 12.2337 37.9999L26.3432 37.9999C28.125 37.9999 29.0174 40.1542 27.7574 41.4141L17.782 51.3896C16.9583 52.2133 15.6015 52.165 14.9189 51.2211C12.5917 48.0037 10.983 44.2323 10.3282 40.1425ZM45.6569 33.9999C43.8751 33.9999 42.9828 31.8456 44.2427 30.5857L54.2181 20.6104C55.0417 19.7867 56.3985 19.835 57.0812 20.7788C59.4083 23.9963 61.0169 27.7675 61.6718 31.8573C61.8559 33.007 60.9306 33.9999 59.7663 33.9999L45.6569 33.9999ZM31.8574 61.6717C33.0071 61.8558 34 60.9306 34 59.7663V45.6569C34 43.8751 31.8457 42.9827 30.5858 44.2427L20.6104 54.218C19.7868 55.0417 19.835 56.3985 20.7789 57.0811C23.9963 59.4083 27.7676 61.0169 31.8574 61.6717Z" />
    </g>
    <defs>
        <clipPath id="logo">
            <rect width="72" height="72" fill="white" />
        </clipPath>
    </defs>
</svg>