<svg xmlns="http://www.w3.org/2000/svg" width="24" height="24" fill="none"><path fill="currentColor" d="M1.5 6.375a1.125 1.125 0 0 0 0 2.25v-2.25Zm0 4.5a1.125 1.125 0 0 0 0 2.25v-2.25Zm0 4.5a1.125 1.125 0 0 0 0 2.25v-2.25ZM17.625 1.5a1.125 1.125 0 0 0-2.25 0h2.25Zm-4.5 0a1.125 1.125 0 0 0-2.25 0h2.25Zm-4.5 0a1.125 1.125 0 0 0-2.25 0h2.25Zm-2.25 21a1.125 1.125 0 0 0 2.25 0h-2.25Zm4.5 0a1.125 1.125 0 0 0 2.25 0h-2.25Zm4.5 0a1.125 1.125 0 0 0 2.25 0h-2.25Zm7.125-4.875a1.125 1.125 0 0 0 0-2.25v2.25Zm0-4.5a1.125 1.125 0 0 0 0-2.25v2.25Zm0-4.5a1.125 1.125 0 0 0 0-2.25v2.25Zm-12.75.75h4.5v-2.25h-4.5v2.25Zm4.875.375v4.5h2.25v-4.5h-2.25Zm-.375 4.875h-4.5v2.25h4.5v-2.25Zm-4.875-.375v-4.5h-2.25v4.5h2.25Zm.375.375a.375.375 0 0 1-.375-.375h-2.25a2.625 2.625 0 0 0 2.625 2.625v-2.25Zm4.875-.375a.375.375 0 0 1-.375.375v2.25a2.625 2.625 0 0 0 2.625-2.625h-2.25Zm-.375-4.875c.207 0 .375.168.375.375h2.25a2.625 2.625 0 0 0-2.625-2.625v2.25Zm-4.5-2.25A2.625 2.625 0 0 0 7.125 9.75h2.25c0-.207.168-.375.375-.375v-2.25Zm-4.5-2.25h13.5v-2.25H5.25v2.25Zm13.875.375v13.5h2.25V5.25h-2.25Zm-.375 13.875H5.25v2.25h13.5v-2.25ZM4.875 18.75V5.25h-2.25v13.5h2.25Zm.375.375a.375.375 0 0 1-.375-.375h-2.25a2.625 2.625 0 0 0 2.625 2.625v-2.25Zm13.875-.375a.375.375 0 0 1-.375.375v2.25a2.625 2.625 0 0 0 2.625-2.625h-2.25ZM18.75 4.875c.207 0 .375.168.375.375h2.25a2.625 2.625 0 0 0-2.625-2.625v2.25Zm-13.5-2.25A2.625 2.625 0 0 0 2.625 5.25h2.25c0-.207.168-.375.375-.375v-2.25Zm-1.5 3.75H1.5v2.25h2.25v-2.25Zm0 4.5H1.5v2.25h2.25v-2.25Zm0 4.5H1.5v2.25h2.25v-2.25ZM17.625 3.75V1.5h-2.25v2.25h2.25Zm-4.5 0V1.5h-2.25v2.25h2.25Zm-4.5 0V1.5h-2.25v2.25h2.25Zm-2.25 16.5v2.25h2.25v-2.25h-2.25Zm4.5 0v2.25h2.25v-2.25h-2.25Zm4.5 0v2.25h2.25v-2.25h-2.25Zm4.875-2.625h2.25v-2.25h-2.25v2.25Zm0-4.5h2.25v-2.25h-2.25v2.25Zm0-4.5h2.25v-2.25h-2.25v2.25Z" class="fills" style="fill:#000"/></svg>