<svg width="342" height="342" viewBox="0 0 342 342" fill="none" xmlns="http://www.w3.org/2000/svg">
<path d="M179.737 47.8037C179.737 46.367 180.947 45.2245 182.379 45.3395C208.631 47.4482 232.591 57.6797 251.743 73.5189C252.861 74.4432 252.921 76.1258 251.895 77.1514L183.999 145.048C182.426 146.621 179.737 145.507 179.737 143.283V47.8037Z" fill="black"/>
<path d="M162.263 48.0297C162.263 46.5733 161.021 45.4239 159.572 45.5701C133.565 48.1932 109.915 58.7998 91.1098 74.9016C90.0206 75.8342 89.9755 77.4937 90.9894 78.5076L158.001 145.519C159.574 147.092 162.263 145.978 162.263 143.754V48.0297Z" fill="black"/>
<path d="M267.928 89.5926C267 88.4864 265.327 88.4324 264.306 89.4533L195.758 158.001C194.186 159.574 195.299 162.263 197.523 162.263L294.196 162.263C295.633 162.263 296.775 161.053 296.66 159.621C294.527 133.064 284.082 108.854 267.928 89.5926Z" fill="black"/>
<path d="M293.97 179.737C295.427 179.737 296.576 180.979 296.43 182.428C293.807 208.435 283.2 232.085 267.098 250.89C266.166 251.979 264.506 252.024 263.492 251.011L196.481 183.999C194.908 182.426 196.022 179.737 198.246 179.737L293.97 179.737Z" fill="black"/>
<path d="M250.749 266.799C251.883 265.88 251.952 264.183 250.92 263.151L183.999 196.23C182.426 194.657 179.737 195.771 179.737 197.995V291.7C179.737 293.137 180.947 294.279 182.379 294.164C208.179 292.092 231.764 282.174 250.749 266.799Z" fill="black"/>
<path d="M162.263 291.474C162.263 292.93 161.021 294.08 159.572 293.934C134.014 291.356 110.733 281.068 92.0889 265.432C90.9827 264.504 90.9288 262.831 91.9496 261.81L158.001 195.758C159.574 194.186 162.263 195.299 162.263 197.523V291.474Z" fill="black"/>
<path d="M76.0152 249.247C76.9396 250.365 78.6221 250.425 79.6478 249.399L145.048 183.999C146.621 182.426 145.507 179.737 143.283 179.737H50.526C49.0696 179.737 47.9203 180.979 48.0664 182.428C50.6137 207.683 60.6895 230.715 76.0152 249.247Z" fill="black"/>
<path d="M47.8359 159.621C47.7208 161.053 48.8634 162.263 50.3 162.263H144.005C146.229 162.263 147.343 159.574 145.77 158.001L78.8493 91.0801C77.8166 90.0475 76.1202 90.1165 75.2011 91.2514C59.8258 110.236 49.9082 133.821 47.8359 159.621Z" fill="black"/>
<path fill-rule="evenodd" clip-rule="evenodd" d="M342 171C342 265.441 265.441 342 171 342C76.5593 342 0 265.441 0 171C0 76.5593 76.5593 0 171 0C265.441 0 342 76.5593 342 171ZM317.036 171C317.036 251.654 251.654 317.036 171 317.036C90.3463 317.036 24.9635 251.654 24.9635 171C24.9635 90.3463 90.3463 24.9635 171 24.9635C251.654 24.9635 317.036 90.3463 317.036 171Z" fill="black"/>
</svg>
