<svg width="118" height="27" viewBox="0 0 118 27" fill="none" xmlns="http://www.w3.org/2000/svg">
<path d="M44.5736 6.44091V19.6904H51.3646V21.8729H42V6.44091H44.5736Z" fill="black"/>
<path d="M53.7058 10.85H56.1497V21.8729H53.7058V10.85ZM54.9385 9.17458C54.4916 9.17458 54.1167 9.02026 53.8139 8.71162C53.5111 8.40298 53.3597 8.03555 53.3597 7.60933C53.3597 7.15372 53.5111 6.7716 53.8139 6.46296C54.1167 6.15432 54.4916 6 54.9385 6C55.3711 6 55.7387 6.15432 56.0415 6.46296C56.3443 6.7716 56.4957 7.15372 56.4957 7.60933C56.4957 8.03555 56.3443 8.40298 56.0415 8.71162C55.7387 9.02026 55.3711 9.17458 54.9385 9.17458Z" fill="black"/>
<path d="M59.3791 10.85H61.585L61.7581 11.8862C62.1185 11.5188 62.5439 11.2322 63.0341 11.0264C63.5243 10.806 64.0578 10.6957 64.6345 10.6957C65.3554 10.6957 66.0042 10.85 66.5809 11.1587C67.1577 11.4526 67.6263 11.8862 67.9867 12.4594C68.3616 11.8862 68.8734 11.4526 69.5223 11.1587C70.1711 10.85 70.8704 10.6957 71.6201 10.6957C72.4708 10.6957 73.2061 10.8794 73.8261 11.2469C74.4605 11.5996 74.9507 12.1287 75.2968 12.8342C75.6428 13.5249 75.8158 14.3921 75.8158 15.4355V21.8729H73.3503V15.7662C73.3503 14.8403 73.1556 14.1422 72.7664 13.6719C72.3915 13.2016 71.8364 12.9664 71.1011 12.9664C70.3513 12.9664 69.7674 13.2089 69.3492 13.6939C68.9311 14.1642 68.722 14.8697 68.722 15.8103V21.8729H66.2782V15.7662C66.2782 14.8403 66.0979 14.1422 65.7375 13.6719C65.3914 13.2016 64.8508 12.9664 64.1154 12.9664C63.3657 12.9664 62.7962 13.2089 62.4069 13.6939C62.0176 14.1642 61.8229 14.8624 61.8229 15.7883V21.8729H59.3791V10.85Z" fill="black"/>
<path d="M83.3587 22.0272C82.2773 22.0272 81.3257 21.7847 80.5039 21.2997C79.6964 20.8147 79.062 20.1386 78.6007 19.2715C78.1537 18.4044 77.9302 17.405 77.9302 16.2733C77.9302 15.2004 78.1537 14.2451 78.6007 13.4073C79.0476 12.5696 79.6676 11.9082 80.4606 11.4232C81.2536 10.9382 82.1547 10.6957 83.164 10.6957C84.1877 10.6957 85.0889 10.9235 85.8674 11.3791C86.646 11.8348 87.2516 12.4741 87.6841 13.2971C88.1311 14.1055 88.3546 15.0461 88.3546 16.119C88.3546 16.2953 88.3474 16.4864 88.3329 16.6922C88.3185 16.8832 88.2969 17.089 88.2681 17.3094H80.5687C80.6408 17.8238 80.7994 18.2721 81.0445 18.6542C81.3041 19.0216 81.6285 19.3082 82.0178 19.514C82.4071 19.7198 82.854 19.8226 83.3587 19.8226C83.9642 19.8226 84.5049 19.6977 84.9807 19.4479C85.4709 19.198 85.8098 18.8673 85.9972 18.4558L88.1383 19.1833C87.7058 20.0651 87.0641 20.7633 86.2135 21.2776C85.3628 21.7774 84.4112 22.0272 83.3587 22.0272ZM85.6944 15.2812C85.68 14.8256 85.5574 14.4141 85.3268 14.0467C85.0961 13.6792 84.7933 13.3926 84.4184 13.1869C84.0435 12.9664 83.6254 12.8562 83.164 12.8562C82.7603 12.8562 82.3782 12.9591 82.0178 13.1648C81.6573 13.3706 81.3473 13.6572 81.0878 14.0246C80.8427 14.3774 80.6841 14.7962 80.612 15.2812H85.6944Z" fill="black"/>
<path d="M97.7089 22.0272C96.6419 22.0272 95.6399 21.8361 94.7027 21.454C93.7655 21.0719 92.9437 20.5354 92.2372 19.8447C91.5451 19.1392 90.9972 18.3088 90.5935 17.3535C90.2042 16.3835 90.0096 15.318 90.0096 14.1569C90.0096 13.0105 90.2042 11.9597 90.5935 11.0044C90.9972 10.0344 91.5451 9.19662 92.2372 8.49116C92.9437 7.7857 93.7655 7.24191 94.7027 6.85978C95.6399 6.47766 96.6419 6.28659 97.7089 6.28659C98.7758 6.28659 99.7707 6.47766 100.693 6.85978C101.631 7.24191 102.445 7.7857 103.137 8.49116C103.844 9.19662 104.392 10.0344 104.781 11.0044C105.185 11.9597 105.387 13.0105 105.387 14.1569C105.387 15.318 105.185 16.3835 104.781 17.3535C104.392 18.3088 103.844 19.1392 103.137 19.8447C102.445 20.5354 101.631 21.0719 100.693 21.454C99.7707 21.8361 98.7758 22.0272 97.7089 22.0272ZM97.7089 19.8006C98.6893 19.8006 99.5616 19.5728 100.326 19.1172C101.09 18.6469 101.688 17.9928 102.121 17.1551C102.553 16.3027 102.77 15.3033 102.77 14.1569C102.77 12.9958 102.553 11.9964 102.121 11.1587C101.688 10.321 101.09 9.67428 100.326 9.21867C99.5616 8.74836 98.6893 8.51321 97.7089 8.51321C96.7284 8.51321 95.8562 8.74836 95.092 9.21867C94.3278 9.67428 93.7223 10.321 93.2753 11.1587C92.8427 11.9964 92.6265 12.9958 92.6265 14.1569C92.6265 15.3033 92.8427 16.3027 93.2753 17.1551C93.7223 17.9928 94.3278 18.6469 95.092 19.1172C95.8562 19.5728 96.7284 19.8006 97.7089 19.8006Z" fill="black"/>
<path d="M109.478 17.6401C109.565 18.0516 109.73 18.4264 109.975 18.7644C110.235 19.0878 110.574 19.345 110.992 19.536C111.424 19.7271 111.936 19.8226 112.527 19.8226C113.436 19.8226 114.113 19.6095 114.56 19.1833C115.007 18.7424 115.231 18.228 115.231 17.6401C115.231 17.1551 115.087 16.7509 114.798 16.4276C114.524 16.1043 114.135 15.8324 113.63 15.6119C113.126 15.3768 112.549 15.1563 111.9 14.9505C111.309 14.7742 110.74 14.5905 110.192 14.3994C109.644 14.1936 109.146 13.9438 108.699 13.6498C108.267 13.3412 107.921 12.9517 107.661 12.4814C107.402 11.9964 107.279 11.3938 107.294 10.6737C107.294 9.73307 107.51 8.93942 107.942 8.29275C108.375 7.63138 108.981 7.13168 109.759 6.79364C110.538 6.45561 111.432 6.28659 112.441 6.28659C113.292 6.28659 114.056 6.41152 114.733 6.66137C115.426 6.89652 116.009 7.24925 116.485 7.71956C116.961 8.17517 117.314 8.74101 117.545 9.41708L115.188 10.2107C115.101 9.88739 114.928 9.60079 114.669 9.35094C114.409 9.08639 114.085 8.88063 113.695 8.73366C113.32 8.58669 112.91 8.50586 112.463 8.49116C111.972 8.47646 111.533 8.54995 111.143 8.71162C110.768 8.87329 110.466 9.10844 110.235 9.41708C110.004 9.71102 109.889 10.0564 109.889 10.4532C109.889 10.9088 110.019 11.2689 110.278 11.5335C110.538 11.7833 110.877 11.9964 111.295 12.1728C111.727 12.3345 112.203 12.5035 112.722 12.6798C113.328 12.8562 113.926 13.062 114.517 13.2971C115.123 13.5176 115.671 13.8042 116.161 14.1569C116.666 14.4949 117.069 14.9285 117.372 15.4576C117.675 15.9867 117.826 16.6481 117.826 17.4417C117.826 18.2941 117.632 19.0657 117.242 19.7565C116.867 20.4473 116.291 20.9984 115.512 21.4099C114.733 21.8214 113.767 22.0272 112.614 22.0272C111.677 22.0272 110.819 21.8876 110.04 21.6083C109.276 21.3144 108.635 20.9029 108.116 20.3738C107.611 19.83 107.279 19.1907 107.121 18.4558L109.478 17.6401Z" fill="black"/>
<path d="M12.2194 3.09273C12.6655 3.03841 13.0408 3.40006 13.0408 3.84941V10.1859C13.0408 10.8892 12.1904 11.2415 11.6931 10.7441L7.17075 6.22179C6.84848 5.89952 6.86385 5.36959 7.22891 5.09671C8.65543 4.03043 10.3625 3.31885 12.2194 3.09273Z" fill="black"/>
<path d="M5.27496 6.99722C5.5529 6.64616 6.07168 6.63795 6.3883 6.95457L10.9355 11.5018C11.4328 11.9991 11.0806 12.8495 10.3773 12.8495H3.87445C3.41947 12.8495 3.05585 12.4651 3.11974 12.0146C3.38617 10.1359 4.15053 8.41754 5.27496 6.99722Z" fill="black"/>
<path d="M3.84488 13.9209C3.39665 13.9209 3.0354 14.2944 3.08783 14.7396C3.31322 16.6531 4.0539 18.4089 5.16732 19.8645C5.44228 20.2239 5.96775 20.2364 6.28776 19.9164L10.9355 15.2686C11.4328 14.7713 11.0806 13.9209 10.3772 13.9209H3.84488Z" fill="black"/>
<path d="M7.08921 21.797C6.73255 21.5211 6.72152 20.9978 7.0404 20.6789L11.6931 16.0262C12.1904 15.5289 13.0408 15.8811 13.0408 16.5845V23.1506C13.0408 23.5999 12.6655 23.9616 12.2194 23.9073C10.3015 23.6737 8.54341 22.9223 7.08921 21.797Z" fill="black"/>
<path d="M14.1122 23.1309C14.1122 23.5847 14.4948 23.948 14.9444 23.886C16.8391 23.6249 18.5722 22.8577 20.0028 21.7251C20.3539 21.4471 20.3621 20.9283 20.0455 20.6117L15.46 16.0262C14.9626 15.5289 14.1122 15.8811 14.1122 16.5845V23.1309Z" fill="black"/>
<path d="M21.9033 19.7711C21.6304 20.1362 21.1005 20.1515 20.7782 19.8293L16.2176 15.2686C15.7203 14.7713 16.0725 13.9209 16.7758 13.9209H23.1552C23.6034 13.9209 23.9646 14.2944 23.9122 14.7396C23.6916 16.6124 22.9774 18.3341 21.9033 19.7711Z" fill="black"/>
<path d="M23.1256 12.8495C23.5806 12.8495 23.9442 12.4651 23.8803 12.0146C23.6196 10.1763 22.8821 8.49146 21.7971 7.08919C21.5211 6.73254 20.9978 6.72151 20.679 7.04038L16.2176 11.5018C15.7202 11.9991 16.0725 12.8495 16.7758 12.8495L23.1256 12.8495Z" fill="black"/>
<path d="M19.8645 5.1673C20.2239 5.44226 20.2364 5.96773 19.9164 6.28774L15.46 10.7442C14.9626 11.2415 14.1122 10.8893 14.1122 10.1859V3.86912C14.1122 3.41527 14.4948 3.05204 14.9444 3.11399C16.7784 3.3667 18.461 4.09373 19.8645 5.1673Z" fill="black"/>
<path fill-rule="evenodd" clip-rule="evenodd" d="M27 13.5C27 20.9558 20.9558 27 13.5 27C6.04416 27 0 20.9558 0 13.5C0 6.04416 6.04416 0 13.5 0C20.9558 0 27 6.04416 27 13.5ZM25.6579 13.5C25.6579 20.2146 20.2146 25.6579 13.5 25.6579C6.78538 25.6579 1.34211 20.2146 1.34211 13.5C1.34211 6.78538 6.78538 1.34211 13.5 1.34211C20.2146 1.34211 25.6579 6.78538 25.6579 13.5Z" fill="black"/>
</svg>
