<svg xmlns="http://www.w3.org/2000/svg" width="30" height="24" fill="none">
    <g fill="currentColor" clip-path="url(#a)">
        <path
            d="M27.231 0H2.769C1.239 0 0 0 0 2.769s1.24 2.769 2.769 2.769h24.462c1.53 0 2.769 0 2.769-2.769S28.76 0 27.231 0ZM27.231 9H2.769C1.239 9 0 9 0 11.769s1.24 2.769 2.769 2.769h24.462c1.53 0 2.769 0 2.769-2.769S28.76 9 27.231 9ZM27.231 18H2.769C1.239 18 0 18 0 20.769s1.24 2.769 2.769 2.769h24.462c1.53 0 2.769 0 2.769-2.769S28.76 18 27.231 18Z" />
    </g>
    <defs>
        <clipPath id="a">
            <path fill="#fff" d="M0 0h30v24H0z" />
        </clipPath>
    </defs>
</svg>