<svg width="16" height="16" viewBox="0 0 16 16" fill="none" xmlns="http://www.w3.org/2000/svg">
<path d="M1 4.25C0.585786 4.25 0.25 4.58579 0.25 5C0.25 5.41421 0.585786 5.75 1 5.75V4.25ZM1 7.25C0.585786 7.25 0.25 7.58579 0.25 8C0.25 8.41421 0.585786 8.75 1 8.75V7.25ZM1 10.25C0.585786 10.25 0.25 10.5858 0.25 11C0.25 11.4142 0.585786 11.75 1 11.75V10.25ZM11.75 1C11.75 0.585786 11.4142 0.25 11 0.25C10.5858 0.25 10.25 0.585786 10.25 1H11.75ZM8.75 1C8.75 0.585786 8.41421 0.25 8 0.25C7.58579 0.25 7.25 0.585786 7.25 1H8.75ZM5.75 1C5.75 0.585786 5.41421 0.25 5 0.25C4.58579 0.25 4.25 0.585786 4.25 1H5.75ZM4.25 15C4.25 15.4142 4.58579 15.75 5 15.75C5.41421 15.75 5.75 15.4142 5.75 15H4.25ZM7.25 15C7.25 15.4142 7.58579 15.75 8 15.75C8.41421 15.75 8.75 15.4142 8.75 15H7.25ZM10.25 15C10.25 15.4142 10.5858 15.75 11 15.75C11.4142 15.75 11.75 15.4142 11.75 15H10.25ZM15 11.75C15.4142 11.75 15.75 11.4142 15.75 11C15.75 10.5858 15.4142 10.25 15 10.25V11.75ZM15 8.75C15.4142 8.75 15.75 8.41421 15.75 8C15.75 7.58579 15.4142 7.25 15 7.25V8.75ZM15 5.75C15.4142 5.75 15.75 5.41421 15.75 5C15.75 4.58579 15.4142 4.25 15 4.25V5.75ZM6.5 6.25H9.5V4.75H6.5V6.25ZM9.75 6.5V9.5H11.25V6.5H9.75ZM9.5 9.75H6.5V11.25H9.5V9.75ZM6.25 9.5V6.5H4.75V9.5H6.25ZM6.5 9.75C6.36193 9.75 6.25 9.63807 6.25 9.5H4.75C4.75 10.4665 5.5335 11.25 6.5 11.25V9.75ZM9.75 9.5C9.75 9.63807 9.63807 9.75 9.5 9.75V11.25C10.4665 11.25 11.25 10.4665 11.25 9.5H9.75ZM9.5 6.25C9.63807 6.25 9.75 6.36193 9.75 6.5H11.25C11.25 5.5335 10.4665 4.75 9.5 4.75V6.25ZM6.5 4.75C5.5335 4.75 4.75 5.5335 4.75 6.5H6.25C6.25 6.36193 6.36193 6.25 6.5 6.25V4.75ZM3.5 3.25H12.5V1.75H3.5V3.25ZM12.75 3.5V12.5H14.25V3.5H12.75ZM12.5 12.75H3.5V14.25H12.5V12.75ZM3.25 12.5V3.5H1.75V12.5H3.25ZM3.5 12.75C3.36193 12.75 3.25 12.6381 3.25 12.5H1.75C1.75 13.4665 2.5335 14.25 3.5 14.25V12.75ZM12.75 12.5C12.75 12.6381 12.6381 12.75 12.5 12.75V14.25C13.4665 14.25 14.25 13.4665 14.25 12.5H12.75ZM12.5 3.25C12.6381 3.25 12.75 3.36193 12.75 3.5H14.25C14.25 2.5335 13.4665 1.75 12.5 1.75V3.25ZM3.5 1.75C2.5335 1.75 1.75 2.5335 1.75 3.5H3.25C3.25 3.36193 3.36193 3.25 3.5 3.25V1.75ZM2.5 4.25H1V5.75H2.5V4.25ZM2.5 7.25H1V8.75H2.5V7.25ZM2.5 10.25H1V11.75H2.5V10.25ZM11.75 2.5V1H10.25V2.5H11.75ZM8.75 2.5V1H7.25V2.5H8.75ZM5.75 2.5V1H4.25V2.5H5.75ZM4.25 13.5V15H5.75V13.5H4.25ZM7.25 13.5V15H8.75V13.5H7.25ZM10.25 13.5V15H11.75V13.5H10.25ZM13.5 11.75H15V10.25H13.5V11.75ZM13.5 8.75H15V7.25H13.5V8.75ZM13.5 5.75L15 5.75V4.25L13.5 4.25V5.75Z" fill="#333333"/>
</svg>
