<svg xmlns="http://www.w3.org/2000/svg" width="27.75" height="24" fill="none"><g style="fill:#000"><path fill="currentColor" d="M13.875 0C9.335 0 4.788 1.866 1.394 5.614l-.861.96c-.691.757-.711 2.022-.054 2.818.664.797 1.762.82 2.453.063l.867-.953c5.353-5.91 14.799-5.91 20.152 0l.867.953c.691.757 1.789.734 2.453-.063.657-.796.637-2.061-.054-2.818l-.861-.968C22.962 1.866 18.415 0 13.875 0Zm-.054 8.01c-2.724.024-5.428 1.257-7.298 3.623l-.867 1.101c-.312.39-.481.906-.454 1.436.02.531.223 1.031.569 1.39.339.359.786.547 1.247.515.46-.023.894-.257 1.206-.655l.86-1.093c2.216-2.803 7.217-2.991 9.582.007l.867 1.086c.305.398.739.632 1.199.655.461.032.908-.156 1.254-.515.339-.359.542-.859.562-1.39a2.181 2.181 0 0 0-.454-1.436l-.867-1.093c-1.945-2.467-4.689-3.654-7.406-3.631Z" class="fills"/><ellipse cx="13.875" cy="19.385" fill="currentColor" class="fills" rx="3.7" ry="3.692"/></g></svg>