<svg width="21" height="17" viewBox="0 0 21 17" fill="none" xmlns="http://www.w3.org/2000/svg">
<path d="M13.6667 4.16093H13.6772M16.8333 4.16093H16.8439M4.37778 16H16.6222C17.8045 16 18.3958 16 18.8473 15.7664C19.2445 15.561 19.5675 15.2332 19.7699 14.83C20 14.3716 20 13.7715 20 12.5714V4.42857C20 3.22846 20 2.6284 19.7699 2.17002C19.5675 1.76681 19.2445 1.439 18.8473 1.23356C18.3958 1 17.8045 1 16.6222 1H4.37778C3.19545 1 2.60428 1 2.15269 1.23356C1.75545 1.439 1.43249 1.76681 1.2301 2.17002C1 2.6284 1 3.22845 1 4.42857V12.5714C1 13.7715 1 14.3716 1.2301 14.83C1.43249 15.2332 1.75545 15.561 2.15269 15.7664C2.60428 16 3.19544 16 4.37778 16Z" stroke="#333333" stroke-width="2" stroke-linecap="round" stroke-linejoin="round"/>
</svg>
