<svg width="17" height="15" viewBox="0 0 17 15" fill="none" xmlns="http://www.w3.org/2000/svg">
<path d="M9.66667 3.73947H9.67722M12.8333 3.73947H12.8439M4.37778 14H12.6222C13.8045 14 14.3958 14 14.8473 13.7976C15.2445 13.6196 15.5675 13.3354 15.7699 12.986C16 12.5888 16 12.0687 16 11.0286V3.97143C16 2.93134 16 2.41128 15.7699 2.01402C15.5675 1.66457 15.2445 1.38046 14.8473 1.20242C14.3958 1 13.8045 1 12.6222 1H4.37778C3.19545 1 2.60428 1 2.15269 1.20242C1.75545 1.38046 1.43249 1.66457 1.2301 2.01402C1 2.41128 1 2.93133 1 3.97143V11.0286C1 12.0687 1 12.5888 1.2301 12.986C1.43249 13.3354 1.75545 13.6196 2.15269 13.7976C2.60428 14 3.19544 14 4.37778 14Z" stroke="#333333" stroke-width="2" stroke-linecap="round" stroke-linejoin="round"/>
</svg>
