<svg xmlns="http://www.w3.org/2000/svg" width="27" height="24" fill="none"><g clip-path="url(#a)"><path stroke="currentColor" stroke-linecap="round" stroke-linejoin="round" stroke-width="3" d="M15.353 5.983h.017m5.012 0h.017M6.953 22.4h13.094c1.878 0 2.817 0 3.534-.324a3.189 3.189 0 0 0 1.465-1.298c.366-.636.366-1.468.366-3.132V6.354c0-1.664 0-2.496-.366-3.132a3.188 3.188 0 0 0-1.465-1.298c-.717-.324-1.656-.324-3.534-.324H6.953c-1.878 0-2.817 0-3.534.324-.63.285-1.144.74-1.465 1.298-.366.636-.366 1.468-.366 3.132v11.292c0 1.664 0 2.496.366 3.132a3.189 3.189 0 0 0 1.465 1.298c.717.324 1.656.324 3.534.324Z"/></g><defs><clipPath id="a"><path fill="#fff" d="M0 0h27v24H0z"/></clipPath></defs></svg>