<svg width="15" height="13" viewBox="0 0 15 13" fill="none" xmlns="http://www.w3.org/2000/svg">
<path d="M2.33196 4.2718L6.38014 1.29458V11.3749L2.33196 8.39767C2.2301 8.32276 2.11323 8.27082 1.98937 8.24541L0.934544 8.02903C0.923678 8.0268 0.912772 8.02478 0.901832 8.02297C0.889271 8.00578 0.875 7.97366 0.875 7.93052V4.73895C0.875 4.68944 0.888044 4.66044 0.896175 4.64742C0.909014 4.64538 0.921807 4.64305 0.934544 4.64044L1.98937 4.42406C2.11323 4.39865 2.2301 4.34671 2.33196 4.2718ZM0.909924 8.03235C0.909922 8.03235 0.909773 8.03224 0.909488 8.03197L0.909924 8.03235Z" stroke="#333333" stroke-width="1.75" stroke-linejoin="round"/>
<path d="M10.0528 4.34254C9.84729 3.94585 9.3731 3.8557 9.05698 4.16223L9.00955 4.1983C8.78826 4.41467 8.72504 4.79333 8.8673 5.08183C9.04117 5.44246 9.15181 5.85719 9.15181 6.30798C9.15181 6.75876 9.04117 7.17348 8.8673 7.53411C8.72504 7.82262 8.78826 8.20127 9.00955 8.41765L9.05698 8.45371C9.3573 8.76025 9.84729 8.68812 10.0528 8.2734C10.3373 7.69639 10.5112 7.0112 10.5112 6.28994C10.5112 5.60474 10.3373 4.93758 10.0528 4.34254Z" fill="#333333"/>
<path d="M11.7125 2.55688C11.4912 2.19625 11.0328 2.14216 10.7483 2.43067L10.7167 2.46672C10.4796 2.71916 10.4322 3.13389 10.6219 3.44042C11.1277 4.25184 11.4122 5.2616 11.4122 6.32546C11.4122 7.40734 11.1119 8.39907 10.6219 9.21049C10.4322 9.51702 10.4796 9.93175 10.7167 10.1842L10.7483 10.2202C11.0328 10.5087 11.4912 10.4547 11.7125 10.094C12.3764 9.03018 12.7557 7.73191 12.7557 6.32546C12.7557 4.919 12.3764 3.62073 11.7125 2.55688Z" fill="#333333"/>
<path d="M13.3719 0.808026C13.1348 0.465428 12.7081 0.411327 12.4236 0.69983L12.3761 0.735895C12.1232 0.988336 12.0916 1.42109 12.2971 1.72762C13.1507 3.00786 13.6407 4.59463 13.6407 6.30762C13.6407 8.0206 13.1348 9.62541 12.2971 10.8876C12.0916 11.1941 12.1232 11.6269 12.3761 11.8793L12.4236 11.9154C12.7081 12.2039 13.1348 12.1498 13.3719 11.8072C14.3994 10.2745 15 8.36319 15 6.28958C15 4.25203 14.3994 2.3407 13.3719 0.808026Z" fill="#333333"/>
</svg>
