<svg width="15" height="15" viewBox="0 0 15 15" fill="none" xmlns="http://www.w3.org/2000/svg">
<path d="M4 11C3.21178 11 2.06949 11 1.76844 10.8443C1.50364 10.7074 1.28831 10.4888 1.15341 10.22C1 9.91443 1 9.51436 1 8.71429V3.28571C1 2.48564 1 2.0856 1.15341 1.78001C1.28831 1.51121 1.50364 1.29266 1.76844 1.15571C2.06949 1 2.46363 1 3.25185 1H8.74815C9.53637 1 9.93048 1 10.2315 1.15571C10.4964 1.29266 10.7117 1.51121 10.8466 1.78001C11 2.0856 11 2.48564 11 3.28571V4M11.7481 14H6.25185C5.46363 14 5.06949 14 4.76844 13.8443C4.50364 13.7074 4.28831 13.4888 4.15341 13.22C4 12.9144 4 12.5144 4 11.7143V6.28571C4 5.48564 4 5.0856 4.15341 4.78001C4.28831 4.51121 4.50364 4.29266 4.76844 4.15571C5.06949 4 5.46363 4 6.25185 4H11.7481C12.5364 4 12.9305 4 13.2315 4.15571C13.4964 4.29266 13.7117 4.51121 13.8466 4.78001C14 5.0856 14 5.48564 14 6.28571V11.7143C14 12.5144 14 12.9144 13.8466 13.22C13.7117 13.4888 13.4964 13.7074 13.2315 13.8443C12.9305 14 12.5364 14 11.7481 14Z" stroke="#333333" stroke-width="1.75" stroke-linecap="round" stroke-linejoin="round"/>
</svg>
