<svg width="106" height="28" viewBox="0 0 106 28" fill="none" xmlns="http://www.w3.org/2000/svg">
<path d="M14.7397 3.91375C14.7397 3.79613 14.8389 3.70259 14.9563 3.71201C17.1092 3.88465 19.074 4.72232 20.6447 6.01909C20.7363 6.09477 20.7412 6.23252 20.6571 6.31649L15.0892 11.8753C14.9602 12.004 14.7397 11.9128 14.7397 11.7308V3.91375Z" fill="black"/>
<path d="M13.3067 3.93225C13.3067 3.81302 13.2048 3.71892 13.086 3.73088C10.9532 3.94564 9.01378 4.81402 7.47162 6.1323C7.38231 6.20865 7.3786 6.34452 7.46175 6.42753L12.9572 11.9139C13.0861 12.0426 13.3067 11.9514 13.3067 11.7694V3.93225Z" fill="black"/>
<path d="M21.9719 7.33507C21.8958 7.2445 21.7586 7.24008 21.6749 7.32366L16.0535 12.9358C15.9245 13.0645 16.0159 13.2847 16.1983 13.2847L24.1261 13.2847C24.2439 13.2847 24.3376 13.1856 24.3282 13.0684C24.1532 10.8942 23.2967 8.91201 21.9719 7.33507Z" fill="black"/>
<path d="M24.1076 14.7153C24.227 14.7153 24.3213 14.817 24.3093 14.9356C24.0942 17.0648 23.2243 19.0011 21.9039 20.5407C21.8274 20.6299 21.6913 20.6336 21.6082 20.5506L16.1127 15.0642C15.9838 14.9355 16.0751 14.7153 16.2575 14.7153L24.1076 14.7153Z" fill="black"/>
<path d="M20.5631 21.8432C20.6562 21.7679 20.6618 21.629 20.5771 21.5445L15.0892 16.0656C14.9602 15.9368 14.7397 16.028 14.7397 16.2101V23.8819C14.7397 23.9995 14.8389 24.093 14.9563 24.0836C17.0721 23.9139 19.0062 23.102 20.5631 21.8432Z" fill="black"/>
<path d="M13.3067 23.8634C13.3067 23.9826 13.2048 24.0767 13.086 24.0647C10.9901 23.8537 9.08086 23.0114 7.55192 21.7313C7.4612 21.6553 7.45678 21.5183 7.5405 21.4347L12.9572 16.027C13.0861 15.8982 13.3067 15.9894 13.3067 16.1715V23.8634Z" fill="black"/>
<path d="M6.23376 20.4062C6.30957 20.4977 6.44755 20.5026 6.53166 20.4186L11.8949 15.0642C12.0239 14.9355 11.9326 14.7153 11.7502 14.7153H4.14348C4.02405 14.7153 3.92979 14.817 3.94177 14.9357C4.15067 17.0033 4.97695 18.889 6.23376 20.4062Z" fill="black"/>
<path d="M3.92287 13.0684C3.91343 13.1856 4.00713 13.2847 4.12495 13.2847H11.8094C11.9918 13.2847 12.0831 13.0645 11.9542 12.9358L6.46618 7.45685C6.38149 7.37231 6.24238 7.37796 6.167 7.47087C4.90612 9.02515 4.09281 10.9561 3.92287 13.0684Z" fill="black"/>
<path fill-rule="evenodd" clip-rule="evenodd" d="M28.0463 14C28.0463 21.732 21.7679 28 14.0232 28C6.27838 28 0 21.732 0 14C0 6.26801 6.27838 0 14.0232 0C21.7679 0 28.0463 6.26801 28.0463 14ZM25.9992 14C25.9992 20.6032 20.6373 25.9562 14.0232 25.9562C7.40901 25.9562 2.04718 20.6032 2.04718 14C2.04718 7.39677 7.40901 2.0438 14.0232 2.0438C20.6373 2.0438 25.9992 7.39677 25.9992 14Z" fill="black"/>
<path d="M38.6284 7.29179V19.2265H44.8741V21.1925H36.2613V7.29179H38.6284Z" fill="black"/>
<path d="M47.0273 11.2634H49.275V21.1925H47.0273V11.2634ZM48.1611 9.7542C47.75 9.7542 47.4053 9.61519 47.1268 9.33718C46.8483 9.05917 46.7091 8.7282 46.7091 8.34427C46.7091 7.93387 46.8483 7.58966 47.1268 7.31165C47.4053 7.03363 47.75 6.89463 48.1611 6.89463C48.5589 6.89463 48.8971 7.03363 49.1756 7.31165C49.454 7.58966 49.5933 7.93387 49.5933 8.34427C49.5933 8.7282 49.454 9.05917 49.1756 9.33718C48.8971 9.61519 48.5589 9.7542 48.1611 9.7542Z" fill="black"/>
<path d="M52.2452 11.2634H54.274L54.4332 12.1968C54.7647 11.8658 55.1559 11.6076 55.6067 11.4223C56.0576 11.2237 56.5482 11.1244 57.0787 11.1244C57.7417 11.1244 58.3384 11.2634 58.8689 11.5414C59.3993 11.8062 59.8303 12.1968 60.1618 12.7131C60.5065 12.1968 60.9773 11.8062 61.574 11.5414C62.1708 11.2634 62.8139 11.1244 63.5035 11.1244C64.2858 11.1244 64.9621 11.2899 65.5323 11.6209C66.1158 11.9386 66.5667 12.4152 66.8849 13.0507C67.2032 13.6729 67.3623 14.454 67.3623 15.3939V21.1925H65.0947V15.6918C65.0947 14.8577 64.9157 14.2289 64.5577 13.8053C64.2129 13.3816 63.7024 13.1698 63.0261 13.1698C62.3365 13.1698 61.7995 13.3882 61.4149 13.8251C61.0303 14.2488 60.8381 14.8842 60.8381 15.7315V21.1925H58.5904V15.6918C58.5904 14.8577 58.4246 14.2289 58.0931 13.8053C57.7749 13.3816 57.2776 13.1698 56.6013 13.1698C55.9117 13.1698 55.3879 13.3882 55.0299 13.8251C54.6719 14.2488 54.4928 14.8776 54.4928 15.7116V21.1925H52.2452V11.2634Z" fill="black"/>
<path d="M74.2996 21.3315C73.3051 21.3315 72.4299 21.1131 71.674 20.6762C70.9314 20.2393 70.3479 19.6303 69.9236 18.8492C69.5125 18.0681 69.307 17.1679 69.307 16.1485C69.307 15.1821 69.5125 14.3216 69.9236 13.567C70.3347 12.8124 70.9049 12.2166 71.6342 11.7797C72.3636 11.3429 73.1924 11.1244 74.1206 11.1244C75.0621 11.1244 75.8909 11.3296 76.607 11.74C77.3231 12.1504 77.88 12.7263 78.2778 13.4677C78.6889 14.1958 78.8945 15.0431 78.8945 16.0095C78.8945 16.1684 78.8878 16.3405 78.8746 16.5258C78.8613 16.6979 78.8414 16.8833 78.8149 17.0819H71.7337C71.8 17.5452 71.9459 17.949 72.1713 18.2932C72.41 18.6242 72.7083 18.8823 73.0664 19.0677C73.4244 19.253 73.8355 19.3457 74.2996 19.3457C74.8566 19.3457 75.3539 19.2332 75.7915 19.0081C76.2423 18.783 76.5539 18.4852 76.7263 18.1145L78.6955 18.7698C78.2977 19.5641 77.7076 20.193 76.9252 20.6563C76.1429 21.1064 75.2677 21.3315 74.2996 21.3315ZM76.4479 15.2549C76.4346 14.8445 76.3219 14.4738 76.1097 14.1429C75.8975 13.8119 75.6191 13.5537 75.2743 13.3684C74.9295 13.1698 74.5449 13.0705 74.1206 13.0705C73.7493 13.0705 73.3979 13.1632 73.0664 13.3485C72.7349 13.5339 72.4498 13.792 72.2111 14.123C71.9856 14.4407 71.8398 14.818 71.7735 15.2549H76.4479Z" fill="black"/>
<path d="M87.4978 21.3315C86.5165 21.3315 85.5949 21.1594 84.7329 20.8152C83.871 20.471 83.1151 19.9878 82.4653 19.3656C81.8288 18.7301 81.3249 17.9821 80.9536 17.1216C80.5956 16.2478 80.4166 15.288 80.4166 14.2421C80.4166 13.2095 80.5956 12.2629 80.9536 11.4024C81.3249 10.5287 81.8288 9.77406 82.4653 9.1386C83.1151 8.50314 83.871 8.0133 84.7329 7.66909C85.5949 7.32489 86.5165 7.15278 87.4978 7.15278C88.4791 7.15278 89.3941 7.32489 90.2427 7.66909C91.1047 8.0133 91.8539 8.50314 92.4904 9.1386C93.1402 9.77406 93.6441 10.5287 94.0021 11.4024C94.3734 12.2629 94.5591 13.2095 94.5591 14.2421C94.5591 15.288 94.3734 16.2478 94.0021 17.1216C93.6441 17.9821 93.1402 18.7301 92.4904 19.3656C91.8539 19.9878 91.1047 20.471 90.2427 20.8152C89.3941 21.1594 88.4791 21.3315 87.4978 21.3315ZM87.4978 19.3258C88.3995 19.3258 89.2018 19.1206 89.9046 18.7102C90.6074 18.2866 91.1577 17.6975 91.5555 16.9429C91.9534 16.175 92.1523 15.2748 92.1523 14.2421C92.1523 13.1963 91.9534 12.296 91.5555 11.5414C91.1577 10.7868 90.6074 10.2043 89.9046 9.79392C89.2018 9.37028 88.3995 9.15846 87.4978 9.15846C86.596 9.15846 85.7938 9.37028 85.091 9.79392C84.3882 10.2043 83.8312 10.7868 83.4201 11.5414C83.0223 12.296 82.8234 13.1963 82.8234 14.2421C82.8234 15.2748 83.0223 16.175 83.4201 16.9429C83.8312 17.6975 84.3882 18.2866 85.091 18.7102C85.7938 19.1206 86.596 19.3258 87.4978 19.3258Z" fill="black"/>
<path d="M98.3221 17.3797C98.4016 17.7504 98.5541 18.088 98.7796 18.3925C99.0182 18.6838 99.3299 18.9154 99.7144 19.0875C100.112 19.2596 100.583 19.3457 101.127 19.3457C101.962 19.3457 102.585 19.1537 102.996 18.7698C103.408 18.3726 103.613 17.9093 103.613 17.3797C103.613 16.9429 103.48 16.5788 103.215 16.2875C102.963 15.9963 102.605 15.7514 102.141 15.5528C101.677 15.341 101.147 15.1424 100.55 14.957C100.006 14.7982 99.4824 14.6327 98.9785 14.4606C98.4746 14.2752 98.0171 14.0502 97.606 13.7854C97.2082 13.5074 96.8899 13.1566 96.6512 12.7329C96.4125 12.296 96.2998 11.7533 96.3131 11.1046C96.3131 10.2573 96.512 9.54238 96.9098 8.95987C97.3076 8.36413 97.8646 7.91401 98.5806 7.60952C99.2967 7.30503 100.119 7.15278 101.047 7.15278C101.83 7.15278 102.532 7.26531 103.156 7.49037C103.792 7.70219 104.329 8.01992 104.767 8.44356C105.204 8.85396 105.529 9.36366 105.741 9.97264L103.573 10.6875C103.494 10.3963 103.335 10.1381 103.096 9.91307C102.857 9.67477 102.559 9.48942 102.201 9.35704C101.856 9.22465 101.478 9.15184 101.067 9.1386C100.616 9.12536 100.212 9.19155 99.8537 9.33718C99.5089 9.48281 99.2304 9.69463 99.0182 9.97264C98.8061 10.2374 98.7 10.5485 98.7 10.906C98.7 11.3164 98.8193 11.6407 99.058 11.879C99.2967 12.1041 99.6084 12.296 99.9929 12.4549C100.391 12.6005 100.828 12.7528 101.306 12.9116C101.863 13.0705 102.413 13.2559 102.957 13.4677C103.514 13.6663 104.018 13.9244 104.468 14.2421C104.933 14.5466 105.304 14.9372 105.582 15.4138C105.861 15.8904 106 16.4861 106 17.201C106 17.9689 105.821 18.6639 105.463 19.2861C105.118 19.9083 104.588 20.4048 103.872 20.7755C103.156 21.1462 102.267 21.3315 101.206 21.3315C100.344 21.3315 99.5553 21.2057 98.8392 20.9542C98.1364 20.6894 97.5463 20.3187 97.0689 19.8421C96.6048 19.3523 96.2998 18.7764 96.1539 18.1145L98.3221 17.3797Z" fill="black"/>
</svg>
