<svg width="15" height="13" viewBox="0 0 15 13" fill="none" xmlns="http://www.w3.org/2000/svg">
<path d="M7.5 0C5.046 0 2.58835 1.01073 0.753347 3.04066L0.288187 3.56083C-0.0854066 3.97105 -0.0963941 4.65615 0.258885 5.08751C0.617827 5.51887 1.21118 5.53155 1.58477 5.12134L2.0536 4.6054C4.94711 1.40403 10.0529 1.40403 12.9464 4.6054L13.4152 5.12134C13.7888 5.53155 14.3822 5.51887 14.7411 5.08751C15.0964 4.65615 15.0854 3.97105 14.7118 3.56083L14.2467 3.03643C12.4117 1.01073 9.95399 0 7.5 0ZM7.4707 4.33897C5.9983 4.35166 4.53689 5.01984 3.52599 6.30124L3.05717 6.89753C2.88869 7.10898 2.79712 7.38809 2.81177 7.67567C2.82276 7.96324 2.93264 8.2339 3.11944 8.42843C3.30257 8.62297 3.54431 8.72446 3.79337 8.70755C4.04243 8.69486 4.27684 8.56799 4.44533 8.35231L4.91049 7.76025C6.10818 6.24203 8.81124 6.14053 10.0895 7.76448L10.5583 8.35231C10.7232 8.56799 10.9576 8.69486 11.2066 8.70755C11.4557 8.72446 11.6974 8.62297 11.8842 8.42843C12.0674 8.2339 12.1772 7.96324 12.1882 7.67567C12.1992 7.39232 12.1113 7.10898 11.9428 6.89753L11.474 6.30547C10.4228 4.9691 8.93943 4.32628 7.4707 4.33897Z" fill="#333333"/>
<circle cx="7.5" cy="10.5" r="2" fill="#333333"/>
</svg>
